<svg id="Layer_1" data-name="Layer 1" xmlns="http://www.w3.org/2000/svg" xmlns:xlink="http://www.w3.org/1999/xlink" viewBox="0 0 1064.31836 251.18151"><defs><style>.cls-1{fill:#69f;}.cls-2{fill:url(#radial-gradient);}.cls-3{fill:#313130;}</style><radialGradient id="radial-gradient" cx="91.61668" cy="88.59026" r="221.06956" gradientUnits="userSpaceOnUse"><stop offset="0" stop-color="#e79fda"/><stop offset="0.10247" stop-color="#ce9ee1"/><stop offset="0.31843" stop-color="#909bf3"/><stop offset="0.45181" stop-color="#69f"/></radialGradient></defs><path class="cls-1" d="M116.377,96.66977,45.08387,25.37662C31.50211,11.79342,21.21863,13.1873,16.29558,15.22507c-4.92162,2.0392-13.1788,8.32745-13.1788,27.53566V219.82917c0,19.20821,8.25718,25.49646,13.1788,27.53566a17.36689,17.36689,0,0,0,6.66971,1.29207c5.50813,0,13.08415-2.40847,22.11858-11.44362L116.377,165.92085a49.08747,49.08747,0,0,0,0-69.25108Z"/><path class="cls-2" d="M184.402,4.02739c-3.38146-1.40034-7.15011-.48327-10.077,2.4479L98.41284,82.386v.00072a11.51487,11.51487,0,0,0,0,16.27058l75.90932,75.9086a9.77878,9.77878,0,0,0,6.87907,3.09322,8.33919,8.33919,0,0,0,3.20078-.64245c3.38145-1.39962,5.39914-4.71153,5.39914-8.85948V12.88615C189.80115,8.7382,187.78346,5.42629,184.402,4.02739Z"/><path class="cls-3" d="M324.4438,35.931h-7.63736a4.90714,4.90714,0,0,0-3.881,1.89131L275.84656,85.17065,238.76109,37.81571a4.90772,4.90772,0,0,0-3.8744-1.88476h-7.63737a4.92975,4.92975,0,0,0-4.92331,4.92332v93.72a4.92975,4.92975,0,0,0,4.92331,4.92331h7.63737a4.92415,4.92415,0,0,0,4.91676-4.92331v-56.31c0-3.19917,0-6.41145-.00656-9.59423,12.10178,15.60579,31.854,40.4682,32.07038,40.74026a5.146,5.146,0,0,0,7.70292.00983c.22289-.28189,19.90959-25.0558,32.06382-40.74354-.00656,3.18278-.00656,6.39507-.00656,9.58768v56.31a4.92415,4.92415,0,0,0,4.91676,4.92331h7.89959a4.92415,4.92415,0,0,0,4.91676-4.92331v-93.72A4.92416,4.92416,0,0,0,324.4438,35.931Z"/><path class="cls-3" d="M493.93085,50.73039l4.57587-7.22763a4.92341,4.92341,0,0,0-4.14319-7.57181H420.72622a4.85846,4.85846,0,0,0-4.12352,2.24532l-5.179,7.8537a4.82208,4.82208,0,0,0-.30812,4.97576,4.31177,4.31177,0,0,0,4.31364,2.02243h29.30126v81.54608a4.92415,4.92415,0,0,0,4.91676,4.92331h7.89959a4.92415,4.92415,0,0,0,4.91676-4.92331V53.02816h27.31095A4.88361,4.88361,0,0,0,493.93085,50.73039Zm-77.21933-.60312Z"/><path class="cls-3" d="M536.61837,38.9564v-.00328a4.91,4.91,0,0,0-4.54308-3.02217H524.569a4.87952,4.87952,0,0,0-4.53653,3.03528l-38.96695,93.71014a4.91626,4.91626,0,0,0,4.53653,6.82118h8.15526a4.93213,4.93213,0,0,0,4.55619-3.04511l10.25964-24.91158H547.94l10.26619,24.928a4.9244,4.9244,0,0,0,4.54308,3.02872h8.54861a4.9163,4.9163,0,0,0,4.53653-6.82118ZM540.932,94.44366H515.60087l6.79168-16.51376c2.1306-5.18554,4.06452-9.945,5.91978-14.53066,1.96014,4.89709,3.94652,9.80074,5.93289,14.6585Z"/><path class="cls-3" d="M650.23833,46.43643v-.00328c-9.886-7.067-22.50565-10.5022-38.58673-10.5022H587.70371a4.92416,4.92416,0,0,0-4.91676,4.92332v93.72a4.92415,4.92415,0,0,0,4.91676,4.92331H609.9668c18.782,0,32.36538-4.02191,42.76268-12.659a50.895,50.895,0,0,0,17.956-39.38C670.68548,70.92844,663.04156,55.59471,650.23833,46.43643Zm2.70749,41.2811c0,10.60709-4.43164,20.25049-12.16078,26.46527-6.90313,5.60838-16.36953,8.22082-29.78245,8.22082H600.52006V53.02816h10.358c13.28836,0,22.26964,2.32071,29.11377,7.5292C648.22573,66.84753,652.94582,76.74988,652.94582,87.71753Z"/><path class="cls-3" d="M720.982,38.9564v-.00328a4.90773,4.90773,0,0,0-4.53653-3.02217h-7.5128a4.87953,4.87953,0,0,0-4.53653,3.03528l-38.96695,93.71014a4.91626,4.91626,0,0,0,4.53653,6.82118H678.121a4.93215,4.93215,0,0,0,4.5562-3.04511l10.25963-24.91158h39.36685l10.26619,24.928a4.92667,4.92667,0,0,0,4.54964,3.02872h8.542a4.9163,4.9163,0,0,0,4.53653-6.82118Zm4.31364,55.48726H699.9645l6.79168-16.51376c2.1306-5.18554,4.07108-9.94168,5.91978-14.53066,1.96015,4.89709,3.94652,9.80074,5.93289,14.6585Z"/><path class="cls-3" d="M833.591,46.43643v-.00328c-9.886-7.067-22.50565-10.5022-38.58672-10.5022h-23.9479a4.92415,4.92415,0,0,0-4.91675,4.92332v93.72a4.92414,4.92414,0,0,0,4.91675,4.92331H793.3195c18.782,0,32.36538-4.02191,42.76268-12.659a50.90073,50.90073,0,0,0,17.94945-39.38C854.03163,70.92516,846.39427,55.59143,833.591,46.43643Zm2.70749,41.2811c0,10.60709-4.43164,20.25049-12.16078,26.46527-6.90313,5.60838-16.36953,8.22082-29.78245,8.22082H783.87276V53.02816h10.35142c13.28836,0,22.26964,2.32071,29.12032,7.5292C831.57843,66.84753,836.29852,76.74988,836.29852,87.71753Z"/><path class="cls-3" d="M911.46846,34.51165c-29.258,0-52.17009,23.371-52.17009,53.20588,0,29.83161,22.9121,53.2026,52.17009,53.2026s52.17009-23.371,52.17009-53.2026C963.63855,57.88264,940.72645,34.51165,911.46846,34.51165Zm34.43042,53.20588c0,20.51272-14.80272,35.98084-34.43042,35.98084-19.63426,0-34.437-15.46812-34.437-35.98084,0-20.516,14.80272-35.98412,34.437-35.98412C931.09616,51.73341,945.89888,67.20154,945.89888,87.71753Z"/><path class="cls-3" d="M1003.01811,78.57564a.07715.07715,0,0,0-.02622-.00656l-1.32425-.36712c-11.80678-3.25161-18.49357-5.51332-18.49357-14.17665,0-10.1613,8.51583-12.2919,15.66152-12.2919a41.65453,41.65453,0,0,1,23.54144,7.62426,4.91981,4.91981,0,0,0,7.78814-4.00224V46.8101a4.91965,4.91965,0,0,0-2.15682-4.07436c-7.598-5.14948-18.45423-8.22409-29.04165-8.22409-20.05382,0-33.52574,12.07228-33.52574,30.03484,0,20.23737,15.62218,26.28826,30.28724,30.379l.89157.23928c12.57379,3.47451,19.6867,5.89355,19.6867,15.20262,0,8.47321-6.12956,13.331-16.82187,13.331a40.69209,40.69209,0,0,1-24.61-8.34866,4.89557,4.89557,0,0,0-5.238-.60968,4.95976,4.95976,0,0,0-2.77305,4.43492v8.92228a4.90563,4.90563,0,0,0,2.15681,4.07435c7.952,5.39532,19.6277,8.74855,30.46424,8.74855,20.99784,0,34.56153-12.14439,34.56153-30.93952C1034.04613,87.334,1014.62166,81.8502,1003.01811,78.57564Z"/><path class="cls-3" d="M400.116,122.40362H359.85759V94.45019h29.46775a4.92975,4.92975,0,0,0,4.92334-4.9233V82.2763a4.92905,4.92905,0,0,0-4.92334-4.92H359.85759V53.02819h48.7932c-.10341-.15812-.20278-.32016-.29533-.48876a8.01777,8.01777,0,0,1,.39717-8.19348l.035-.05435,5.1629-7.82915c.11687-.18394.2428-.35963.3727-.53146h-67.282a4.92415,4.92415,0,0,0-4.91676,4.9233v93.71994a4.92415,4.92415,0,0,0,4.91676,4.92331H400.116a4.92415,4.92415,0,0,0,4.91675-4.92331v-7.25059A4.92344,4.92344,0,0,0,400.116,122.40362Z"/><path class="cls-3" d="M1045.428,50.19072V38.80251h4.84958a8.83314,8.83314,0,0,1,2.65159.29241,3.01123,3.01123,0,0,1,1.32781,1.1021,3.60622,3.60622,0,0,1,.47886,1.80458,3.00526,3.00526,0,0,1-.75363,2.10211,3.55852,3.55852,0,0,1-2.23936,1.06885,5.151,5.151,0,0,1,1.23211.94694,14.39518,14.39518,0,0,1,1.31118,1.84294l1.37384,2.22828h-2.74342l-1.665-2.47381a18.35392,18.35392,0,0,0-1.20312-1.68181,1.73642,1.73642,0,0,0-.69928-.46612,3.34332,3.34332,0,0,0-1.14473-.13747h-.47037v4.75921Zm2.30608-6.57295h1.68181a9.22259,9.22259,0,0,0,2.07717-.14152,1.28469,1.28469,0,0,0,.64941-.46633,1.5826,1.5826,0,0,0,.2289-.86169,1.37632,1.37632,0,0,0-.29561-.93351,1.3259,1.3259,0,0,0-.874-.43287,12.0094,12.0094,0,0,0-1.67776-.048h-1.78987Z"/><path class="cls-3" d="M1059.98908,44.92788a10.053,10.053,0,1,1-10.04869-10.05913,10.04335,10.04335,0,0,1,10.04869,10.05913m-10.04869,8.50029a8.4956,8.4956,0,1,0-8.48792-8.50029,8.49129,8.49129,0,0,0,8.48792,8.50029"/><path class="cls-3" d="M452.19961,170.93227q1.19369-.10827,2.17269-.21653.97716-.10827,1.92841-.19062.9494-.0805,1.98022-.1351c.68845-.03516,1.44723-.05367,2.28188-.05367a27.98151,27.98151,0,0,1,5.48355.54225,13.93454,13.93454,0,0,1,4.83211,1.90064,10.50226,10.50226,0,0,1,3.44781,3.66434,11.5686,11.5686,0,0,1,1.33063,5.837,10.16263,10.16263,0,0,1-.707,3.855,12.32766,12.32766,0,0,1-1.79145,3.09433,12.70791,12.70791,0,0,1-2.47065,2.36331,19.23114,19.23114,0,0,1-2.68718,1.6545l-.65144.32572,11.34834,16.4525a30.10606,30.10606,0,0,1-3.31271.16286,26.3762,26.3762,0,0,1-2.93147-.16286L459.965,191.94483v-.21653l.43491-.10919a25.44249,25.44249,0,0,0,3.09433-1.03083,12.744,12.744,0,0,0,3.0129-1.71,9.44182,9.44182,0,0,0,2.30779-2.55208,6.74362,6.74362,0,0,0,.92348-3.61067q0-3.9114-2.30779-5.81111a9.48923,9.48923,0,0,0-6.21641-1.8988q-.92442,0-1.71.05367-.78838.05553-1.76554.16286v34.80379q-.59683.05274-1.33063.10919-.73287.05274-1.38431.05367-.65237,0-1.41206-.02776a11.12247,11.12247,0,0,1-1.41207-.1351Z"/><path class="cls-3" d="M498.08153,170.98779c.43491-.07218.88648-.1277,1.35655-.16286.47007-.037.942-.05552,1.41206-.05552s.94015.01851,1.41207.05552c.47007.03516.92349.09068,1.35654.16286v16.07126h16.61536V170.98779a12.56844,12.56844,0,0,1,1.30287-.16286q.70512-.05551,1.41207-.05552.7051,0,1.438.05552c.48858.03516.95125.09068,1.38431.16286v39.03813a13.10026,13.10026,0,0,1-1.30288.16286q-.7051.05274-1.46573.05367-.70511,0-1.438-.05367a13.02773,13.02773,0,0,1-1.33063-.16286V191.94483H503.61875v18.08109c-.433.07217-.87722.12584-1.32878.16286q-.68013.05274-1.43983.05367-.70511,0-1.438-.05367a13.028,13.028,0,0,1-1.33064-.16286Z"/><path class="cls-3" d="M575.3435,170.98779H596.791a16.31729,16.31729,0,0,1,.16286,2.38737c0,.39975-.0111.81615-.02776,1.24921a8.094,8.094,0,0,1-.1351,1.19553H580.88071v11.18363h12.70673a11.03414,11.03414,0,0,1,.16286,1.16777q.05276.6246.05367,1.22145c0,.39974-.0185.8143-.05367,1.2492a10.87261,10.87261,0,0,1-.16286,1.19554H580.88071v13.35632H597.224a16.07243,16.07243,0,0,1,.16286,2.38922q0,.59683-.02591,1.2492a8.057,8.057,0,0,1-.13695,1.19369H575.3435Z"/><path class="cls-3" d="M619.1064,170.98779a14.76775,14.76775,0,0,1,1.49164-.16286q.84113-.05551,1.60268-.05552.76063,0,1.65636.05552a12.76606,12.76606,0,0,1,1.49164.16286l10.09913,24.43261,10.15465-24.43261a10.57155,10.57155,0,0,1,1.35655-.16286c.5441-.037,1.06784-.05552,1.57492-.05552q.70511,0,1.57493.05552a12.66675,12.66675,0,0,1,1.46573.16286l1.847,39.03813q-.65237.10826-1.33063.16286-.68013.05274-1.38431.05367c-.47192,0-.93274-.01851-1.38615-.05367q-.67736-.05553-1.27512-.16286l-1.2492-30.35106-9.555,22.26176a15.17251,15.17251,0,0,1-2.22637.16286,13.34851,13.34851,0,0,1-2.0635-.16286L623.72013,179.512l-1.24736,30.51392q-.59961.10826-1.2492.16286-.65236.05274-1.24921.05367c-.47007,0-.92348-.01851-1.35654-.05367q-.65237-.05553-1.24921-.16286Z"/><path class="cls-3" d="M701.36333,204.10746a37.52342,37.52342,0,0,0,3.74576,1.14,20.01129,20.01129,0,0,0,4.77844.48858q4.45,0,6.65133-1.81922a6.04311,6.04311,0,0,0,2.1986-4.91354,6.66088,6.66088,0,0,0-.46082-2.60575,5.04492,5.04492,0,0,0-1.3843-1.87288,10.41586,10.41586,0,0,0-2.30779-1.43983q-1.38523-.64957-3.23128-1.41021l-3.09433-1.24921a21.17811,21.17811,0,0,1-2.8778-1.43982,8.66112,8.66112,0,0,1-3.74761-4.56006,10.44946,10.44946,0,0,1-.54225-3.557,9.51421,9.51421,0,0,1,3.36637-7.73767q3.36731-2.79545,9.4477-2.79452a27.07063,27.07063,0,0,1,4.9413.43306,26.16668,26.16668,0,0,1,4.12515,1.08635,17.018,17.018,0,0,1-1.19368,4.50639,27.19106,27.19106,0,0,0-3.39414-.97716,20.00179,20.00179,0,0,0-4.36944-.43491,8.65226,8.65226,0,0,0-5.267,1.38431,4.86306,4.86306,0,0,0-1.847,4.15476,4.36382,4.36382,0,0,0,.46266,2.03575,5.39565,5.39565,0,0,0,1.22145,1.57492,8.74565,8.74565,0,0,0,1.79145,1.22144,19.46359,19.46359,0,0,0,2.17084.97716l3.04066,1.19369a32.54536,32.54536,0,0,1,3.855,1.81921,12.01661,12.01661,0,0,1,2.8778,2.22636,8.63559,8.63559,0,0,1,1.81921,3.01475,12.02927,12.02927,0,0,1,.62553,4.07148,10.90012,10.90012,0,0,1-3.855,8.82217q-3.85589,3.23127-10.80609,3.23128-1.68227,0-3.04066-.10919a24.54916,24.54916,0,0,1-2.52432-.32572,21.55992,21.55992,0,0,1-2.25412-.54225q-1.08542-.32479-2.22451-.70511a12.1715,12.1715,0,0,1,.48858-2.44474Q700.92657,205.30393,701.36333,204.10746Z"/><path class="cls-3" d="M745.50562,170.98779c.4349-.07218.88647-.1277,1.35654-.16286.47007-.037.942-.05552,1.41207-.05552s.94014.01851,1.41206.05552c.47007.03516.92349.09068,1.35654.16286v39.03813c-.433.07217-.87722.12584-1.32878.16286q-.68013.05274-1.43982.05367-.70512,0-1.438-.05367a13.02738,13.02738,0,0,1-1.33063-.16286Z"/><path class="cls-3" d="M774.17256,170.98779a12.58585,12.58585,0,0,1,1.27512-.16286c.45341-.037.87722-.05552,1.277-.05552.3979,0,.8217.01851,1.27512.05552a12.76274,12.76274,0,0,1,1.277.16286l16.99474,29.31839V170.98779c.43306-.07218.88647-.1277,1.35654-.16286q.70512-.05551,1.41207-.05552.59683,0,1.2492.05552c.43306.03516.84946.09068,1.24736.16286v39.03813q-.59685.10826-1.27512.16286c-.45341.03516-.87722.05367-1.27511.05367q-.59962,0-1.277-.05367c-.45341-.037-.87722-.09069-1.27511-.16286l-17.05027-29.15738v29.15738q-.59683.10826-1.27511.16286c-.45342.03516-.89573.05367-1.33064.05367-.47007,0-.93274-.01851-1.3843-.05367a10.73173,10.73173,0,0,1-1.22145-.16286Z"/><path class="cls-3" d="M831.401,175.8199H821.24632a10.87757,10.87757,0,0,1-.16286-1.19553q-.05274-.64959-.05367-1.24921,0-.59683.05367-1.22145a10.93507,10.93507,0,0,1,.16286-1.16592h25.84652a11.0399,11.0399,0,0,1,.16286,1.14q.05276.59683.05367,1.19368c0,.39975-.0185.82355-.05367,1.277a10.84191,10.84191,0,0,1-.16286,1.22144H836.93819v34.206a20.9529,20.9529,0,0,1-2.71494.16286,22.69734,22.69734,0,0,1-2.82228-.16286Z"/><path class="cls-3" d="M879.77761,210.67736a16.70961,16.70961,0,0,1-7.33053-1.4935,13.92879,13.92879,0,0,1-5.13192-4.18067,18.48342,18.48342,0,0,1-3.04065-6.37928,33.1272,33.1272,0,0,1,0-16.18044,18.48342,18.48342,0,0,1,3.04065-6.37928,14.20424,14.20424,0,0,1,5.13192-4.20843,18.43862,18.43862,0,0,1,14.6592,0,14.20424,14.20424,0,0,1,5.13192,4.20843,18.11654,18.11654,0,0,1,3.0129,6.37928,33.97968,33.97968,0,0,1,0,16.18044,18.11654,18.11654,0,0,1-3.0129,6.37928,13.92879,13.92879,0,0,1-5.13192,4.18067A16.70685,16.70685,0,0,1,879.77761,210.67736Zm0-4.77845a9.81825,9.81825,0,0,0,4.69516-1.05858,8.8612,8.8612,0,0,0,3.28494-3.06657,15.00562,15.00562,0,0,0,1.95617-4.834,31.69688,31.69688,0,0,0,0-12.78631,14.67387,14.67387,0,0,0-1.95617-4.83211,8.92564,8.92564,0,0,0-3.28494-3.04066,10.94563,10.94563,0,0,0-9.39218,0,8.92564,8.92564,0,0,0-3.28494,3.04066,14.63315,14.63315,0,0,0-1.95432,4.83211,31.69688,31.69688,0,0,0,0,12.78631,14.96286,14.96286,0,0,0,1.95432,4.834,8.8612,8.8612,0,0,0,3.28494,3.06657A9.81562,9.81562,0,0,0,879.77761,205.89891Z"/><path class="cls-3" d="M917.89225,170.98779a12.58564,12.58564,0,0,1,1.27511-.16286c.45342-.037.87722-.05552,1.277-.05552.39789,0,.8217.01851,1.27511.05552a12.76236,12.76236,0,0,1,1.277.16286l16.99474,29.31839V170.98779c.43306-.07218.88648-.1277,1.35655-.16286q.70511-.05551,1.41206-.05552.59685,0,1.24921.05552c.433.03516.84946.09068,1.24735.16286v39.03813q-.59683.10826-1.27511.16286c-.45342.03516-.87722.05367-1.27512.05367q-.59961,0-1.277-.05367c-.45342-.037-.87722-.09069-1.27512-.16286l-17.05026-29.15738v29.15738q-.59685.10826-1.27512.16286c-.45341.03516-.89572.05367-1.33063.05367-.47007,0-.93274-.01851-1.38431-.05367a10.73153,10.73153,0,0,1-1.22144-.16286Z"/><path class="cls-3" d="M968.3879,170.98779c.43491-.07218.88648-.1277,1.35655-.16286.47007-.037.942-.05552,1.41206-.05552s.94014.01851,1.41207.05552c.47007.03516.92348.09068,1.35654.16286v39.03813c-.43306.07217-.87722.12584-1.32878.16286q-.68013.05274-1.43983.05367-.70511,0-1.438-.05367a13.028,13.028,0,0,1-1.33064-.16286Z"/><path class="cls-3" d="M1016.276,201.01313h-14.82391l-2.65942,9.01279q-.70788.10826-1.41206.16286-.70788.05274-1.41206.05367-.76064,0-1.4935-.05367a13.02738,13.02738,0,0,1-1.33063-.16286l12.70673-39.03813c.47007-.07218.97715-.1277,1.5194-.16286q.81615-.05551,1.68411-.05552c.50524,0,1.03083.01851,1.57308.05552.5441.03516,1.06784.09068,1.57492.16286l12.65121,39.03813q-.65236.10826-1.46573.16286-.81337.05274-1.57492.05367-.70512,0-1.438-.05367c-.48858-.037-.95125-.09069-1.3843-.16286Zm-13.35817-4.83211h11.89243l-5.974-19.92806Z"/></svg>