<svg xmlns="http://www.w3.org/2000/svg" viewBox="0 0 209.06 77.67"><defs><style>.cls-1{fill:#fff;}</style></defs><g id="Camada_2" data-name="Camada 2"><g id="bg_etapa1"><g id="Artwork_22" data-name="Artwork 22"><path class="cls-1" d="M18.11,10.15l-8.9,8.9a7.31,7.31,0,0,0,0,10.33l8.9,8.89a7.18,7.18,0,0,1,0,10.15L4.32,34.63a14.73,14.73,0,0,1,0-20.84L18.11,0a7.18,7.18,0,0,1,0,10.15"/><path class="cls-1" d="M18.21,58l8.9-8.89a7.31,7.31,0,0,0,0-10.33l-8.9-8.9a7.18,7.18,0,0,1,0-10.15L32,33.49a14.73,14.73,0,0,1,0,20.84L18.21,68.12a7.18,7.18,0,0,1,0-10.15"/><path class="cls-1" d="M128,25.55h0c-8.37,0-13.81,5.73-13.86,14.57V51.93c0,1.17.54,2.57,3.16,2.57s3-1.4,3-2.57V40.12c0-5.89,2.92-9.54,7.62-9.54H128c4.71,0,7.63,3.65,7.63,9.54V51.93c0,1.17.53,2.57,3,2.57s3.16-1.4,3.16-2.57V40.11c0-8.83-5.49-14.55-13.86-14.56"/><path class="cls-1" d="M206.58,25.55h-.13c-8.37,0-13.81,5.73-13.86,14.57V51.93c0,1.17.55,2.57,3.16,2.57s3-1.4,3-2.57V40.12c0-5.89,2.92-9.54,7.62-9.54h.09a2.62,2.62,0,0,0,1.82-.75,2.45,2.45,0,0,0,.74-1.76h0a2.51,2.51,0,0,0-2.48-2.51"/><path class="cls-1" d="M67.48,30.35c-4.37-1.86-8.14-3.46-8.14-7,0-3.22,2.83-5.3,7.21-5.3a13,13,0,0,1,6.86,2l.69.42a3.65,3.65,0,0,0,1.8.75c1.49,0,2.7-1.68,2.7-3.07,0-1.22-1.1-2.1-2.29-2.88a18.36,18.36,0,0,0-9.76-2.71c-7.95,0-13.28,4.45-13.28,11.06,0,7,6,9.56,11.36,11.85,4.66,2,8.69,3.72,8.69,7.77,0,3.69-3.22,6.16-8,6.16A12.41,12.41,0,0,1,57.92,47l-.56-.38a3.86,3.86,0,0,0-2.19-1,3.11,3.11,0,0,0-2.7,3c0,1,.68,2,2.2,3a17.8,17.8,0,0,0,10.59,3.28c8.45,0,14.13-4.79,14.13-11.92,0-7.58-6.33-10.28-11.91-12.66"/><path class="cls-1" d="M90.88,42.08h13.75c2.22,0,4.48-.48,4.48-4,0-7.35-5-12.48-12-12.48-7.77,0-12.79,5.76-12.79,14.69s5.21,14.45,13.59,14.45a15.23,15.23,0,0,0,8.71-2.41c1.37-.89,2-1.74,2-2.75a2.68,2.68,0,0,0-2.64-2.7,4.42,4.42,0,0,0-2.26,1l-.13.09a9.61,9.61,0,0,1-5.42,1.46c-4.37,0-7-2.27-7.74-6.74a.48.48,0,0,1,.11-.41.54.54,0,0,1,.4-.18m-.44-5.3c.72-4,3-6.26,6.5-6.26s5.92,2.35,6.24,6.29a.48.48,0,0,1-.13.38.5.5,0,0,1-.37.17H90.92a.51.51,0,0,1-.38-.18.48.48,0,0,1-.1-.4"/><path class="cls-1" d="M151,13.49a3.66,3.66,0,0,0-3.81,3.75,3.81,3.81,0,0,0,7.62,0A3.66,3.66,0,0,0,151,13.49"/><path class="cls-1" d="M151,25.85c-2.44,0-2.95,1.41-2.95,2.58v23.5c0,1.17.53,2.57,3.07,2.57S154,53.1,154,51.93V28.43c0-1.17-.53-2.58-3.06-2.58"/><path class="cls-1" d="M173.37,25.55c-8.44,0-13.89,5.76-13.89,14.69s5.4,14.57,13.77,14.57S187.2,49,187.2,40.12s-5.43-14.57-13.83-14.57m0,24.17c-4.67,0-7.69-3.77-7.69-9.6s2.92-9.54,7.63-9.54,7.64,3.7,7.64,9.66-2.91,9.48-7.58,9.48"/><path class="cls-1" d="M58.15,73.9c0,.38-.21.57-.68.57s-.7-.19-.7-.57V65H53.85c-.37,0-.57-.2-.57-.62s.2-.62.57-.62h7.22c.38,0,.57.19.57.62s-.19.62-.57.62H58.15Z"/><path class="cls-1" d="M67.2,73.27c0,.23-.14.42-.47.63a3.9,3.9,0,0,1-2.25.62C62.3,74.52,61,73.1,61,70.81S62.26,67,64.27,67a3,3,0,0,1,3.08,3.2c0,.86-.31,1-.85,1H62.35a2.09,2.09,0,0,0,2.2,2.17A2.68,2.68,0,0,0,66,72.94a1.25,1.25,0,0,1,.58-.28.6.6,0,0,1,.58.61m-4.84-3.12H66c0-1.18-.62-2-1.77-2s-1.75.76-1.88,2"/><path class="cls-1" d="M72.26,73.35a2.26,2.26,0,0,0,1.28-.41c.22-.15.35-.26.53-.26a.62.62,0,0,1,.6.62.81.81,0,0,1-.41.6,3.67,3.67,0,1,1-2.05-6.84,3.5,3.5,0,0,1,2.05.58.79.79,0,0,1,.41.59.63.63,0,0,1-.59.67c-.16,0-.28-.11-.54-.26a2.17,2.17,0,0,0-1.28-.41c-1.32,0-2.11,1-2.11,2.53s.77,2.59,2.11,2.59"/><path class="cls-1" d="M77.67,67.68v.52A2.62,2.62,0,0,1,80,67.07a2.34,2.34,0,0,1,2.09,1,3.34,3.34,0,0,1,.47,1.92v4c0,.38-.21.57-.67.57s-.7-.19-.7-.57V70.15a2.21,2.21,0,0,0-.33-1.3,1.48,1.48,0,0,0-1.32-.57,2.1,2.1,0,0,0-1.81.93V73.9c0,.38-.21.57-.67.57s-.7-.19-.7-.57V67.68c0-.38.22-.57.67-.57s.66.22.64.57"/><path class="cls-1" d="M87.89,67a3.77,3.77,0,1,1-3.57,3.79A3.43,3.43,0,0,1,87.89,67m0,6.41c1.3,0,2.12-1,2.12-2.62s-.83-2.68-2.14-2.68-2.13,1-2.13,2.64.85,2.66,2.15,2.66"/><path class="cls-1" d="M94.64,73.9c0,.38-.21.57-.67.57s-.7-.19-.7-.57V63.83c0-.38.21-.57.67-.57s.7.19.7.57Z"/><path class="cls-1" d="M100.05,67a3.77,3.77,0,1,1-3.57,3.79A3.43,3.43,0,0,1,100.05,67m0,6.41c1.31,0,2.12-1,2.12-2.62s-.83-2.68-2.13-2.68-2.14,1-2.14,2.64.85,2.66,2.15,2.66"/><path class="cls-1" d="M111.14,68.41h-.8a2.34,2.34,0,0,1,.23,1,2.47,2.47,0,0,1-2.74,2.43,3.54,3.54,0,0,1-.88-.1.9.9,0,0,0-.26.62c0,.51.45.72,1.27.74a5.29,5.29,0,0,1,2.56.45,1.72,1.72,0,0,1,.86,1.6c0,1.48-1.14,2.48-3.42,2.48s-3.36-1-3.36-2.12A2,2,0,0,1,106,73.77a1.3,1.3,0,0,1-.54-1.07,1.46,1.46,0,0,1,.75-1.24,2.24,2.24,0,0,1-1.1-2,2.49,2.49,0,0,1,2.77-2.41,3.08,3.08,0,0,1,1.74.49,4.76,4.76,0,0,1,1.5-.3c.43,0,.6.18.6.57s-.17.59-.53.59m-4.24,5.74a1.42,1.42,0,0,0-.85,1.25c0,.72.59,1.24,1.92,1.24s2-.57,2-1.33-.52-1-2-1.08a7,7,0,0,1-1-.08m2.36-4.68a1.44,1.44,0,1,0-1.43,1.4,1.35,1.35,0,0,0,1.43-1.4"/><path class="cls-1" d="M113.79,65.61a.86.86,0,0,1-.89-.9.9.9,0,0,1,1.79,0,.87.87,0,0,1-.9.9m.69,8.29c0,.38-.21.57-.67.57s-.7-.19-.7-.57V67.68c0-.38.21-.57.67-.57s.7.19.7.57Z"/><path class="cls-1" d="M119.22,68.22a2.81,2.81,0,0,0-1.46.4c-.27.15-.4.26-.58.26a.62.62,0,0,1-.55-.65c0-.2.15-.39.49-.6a4.25,4.25,0,0,1,2.23-.57,2.61,2.61,0,0,1,2.25.88,2.82,2.82,0,0,1,.44,1.77v4.18c0,.39-.16.58-.65.58s-.6-.13-.6-.44v-.39a2.88,2.88,0,0,1-2.19.87,2,2,0,0,1-2.31-2c0-1.48,1.29-2.27,4.42-2.51v-.21c0-1-.41-1.53-1.49-1.53m-1.48,4.15c0,.57.39,1,1.3,1a2.6,2.6,0,0,0,1.67-.63V70.87c-2,.23-3,.61-3,1.5"/><path class="cls-1" d="M129.13,77.07c0,.37-.21.57-.66.57s-.71-.2-.71-.57V67.68c0-.39.23-.57.67-.57s.62.16.62.45v.36a2.66,2.66,0,0,1,2.06-.85c1.87,0,3.24,1.39,3.24,3.67a3.44,3.44,0,0,1-3.55,3.77,2.86,2.86,0,0,1-1.67-.46Zm1.52-3.69a2.27,2.27,0,0,0,2.28-2.57c0-1.63-.88-2.63-2.2-2.63a2.28,2.28,0,0,0-1.6.64v4.06a2.42,2.42,0,0,0,1.52.5"/><path class="cls-1" d="M138.59,68.22a2.87,2.87,0,0,0-1.47.4c-.26.15-.39.26-.57.26a.62.62,0,0,1-.55-.65c0-.2.14-.39.49-.6a4.23,4.23,0,0,1,2.23-.57,2.63,2.63,0,0,1,2.25.88,2.82,2.82,0,0,1,.44,1.77v4.18c0,.39-.16.58-.65.58s-.61-.13-.61-.44v-.39a2.86,2.86,0,0,1-2.18.87,2,2,0,0,1-2.31-2c0-1.48,1.28-2.27,4.41-2.51v-.21c0-1-.4-1.53-1.48-1.53m-1.48,4.15c0,.57.39,1,1.3,1a2.55,2.55,0,0,0,1.66-.63V70.87c-2,.23-3,.61-3,1.5"/><path class="cls-1" d="M145.05,73.9c0,.38-.22.57-.67.57s-.7-.19-.7-.57V67.68c0-.38.21-.57.67-.57s.65.22.63.57v.81a2.33,2.33,0,0,1,2.22-1.42c.44,0,.62.18.62.62s-.25.62-.72.64a2,2,0,0,0-2,1.25Z"/><path class="cls-1" d="M151.5,68.22a2.87,2.87,0,0,0-1.47.4c-.26.15-.39.26-.57.26a.62.62,0,0,1-.55-.65c0-.2.15-.39.49-.6a4.23,4.23,0,0,1,2.23-.57,2.61,2.61,0,0,1,2.25.88,2.82,2.82,0,0,1,.44,1.77v4.18c0,.39-.16.58-.65.58s-.6-.13-.6-.44v-.39a2.88,2.88,0,0,1-2.19.87,2,2,0,0,1-2.31-2c0-1.48,1.28-2.27,4.41-2.51v-.21c0-1-.4-1.53-1.48-1.53M150,72.37c0,.57.39,1,1.3,1a2.55,2.55,0,0,0,1.66-.63V70.87c-2,.23-3,.61-3,1.5"/><path class="cls-1" d="M165,70.28c-.38,0-.57-.19-.57-.61s.19-.62.57-.62h2.54c.5,0,.72.21.72.71v3.31c0,.46-.17.69-.74.93a7.25,7.25,0,0,1-2.7.51c-3.1,0-5.27-2-5.27-5.46s2.14-5.43,5.18-5.43a5.26,5.26,0,0,1,2.76.7c.47.29.7.53.7.8a.71.71,0,0,1-.62.63c-.19,0-.37-.16-.73-.37a4,4,0,0,0-2.11-.54c-2.24,0-3.74,1.52-3.74,4.17s1.53,4.29,3.88,4.29a5.72,5.72,0,0,0,2-.38V70.28Z"/><path class="cls-1" d="M176.18,73.27c0,.23-.14.42-.47.63a3.9,3.9,0,0,1-2.25.62c-2.18,0-3.49-1.42-3.49-3.71S171.24,67,173.25,67a3,3,0,0,1,3.08,3.2c0,.86-.31,1-.85,1h-4.15a2.09,2.09,0,0,0,2.2,2.17,2.68,2.68,0,0,0,1.49-.41,1.25,1.25,0,0,1,.58-.28.6.6,0,0,1,.58.61m-4.84-3.12H175c0-1.18-.62-2-1.77-2s-1.75.76-1.88,2"/><path class="cls-1" d="M177.75,69.1c0-1.23,1-2,2.59-2a3.87,3.87,0,0,1,2,.52c.35.23.49.42.49.65a.62.62,0,0,1-.57.65,1.37,1.37,0,0,1-.58-.26,2.9,2.9,0,0,0-1.46-.41c-.76,0-1.2.35-1.2.84,0,1.37,3.91.84,3.91,3.34,0,1.3-1,2.13-2.67,2.13a3.81,3.81,0,0,1-2.19-.62c-.32-.21-.47-.4-.47-.63a.63.63,0,0,1,.59-.65c.16,0,.27.11.54.26a2.77,2.77,0,0,0,1.54.48c.79,0,1.32-.35,1.32-.92,0-1.44-3.89-.92-3.89-3.34"/><path class="cls-1" d="M189.37,73.69a.56.56,0,0,1-.32.49,3,3,0,0,1-1.46.34,2,2,0,0,1-1.89-1,4,4,0,0,1-.31-1.92V68.41h-.91a.5.5,0,0,1-.57-.57.52.52,0,0,1,.57-.59h.91V65.48c0-.38.22-.57.67-.57s.7.19.7.57v1.77h1.86a.5.5,0,0,1,.57.57c0,.4-.19.59-.57.59h-1.86v3.21a3,3,0,0,0,.18,1.29.88.88,0,0,0,.85.44,1.8,1.8,0,0,0,.69-.15,1.37,1.37,0,0,1,.37-.13c.38,0,.52.41.52.62"/><path class="cls-1" d="M193.41,68.22a2.81,2.81,0,0,0-1.46.4c-.26.15-.39.26-.57.26a.62.62,0,0,1-.56-.65c0-.2.15-.39.49-.6a4.26,4.26,0,0,1,2.24-.57,2.64,2.64,0,0,1,2.25.88,2.89,2.89,0,0,1,.44,1.77v4.18c0,.39-.17.58-.66.58s-.6-.13-.6-.44v-.39a2.88,2.88,0,0,1-2.18.87,2,2,0,0,1-2.32-2c0-1.48,1.29-2.27,4.42-2.51v-.21c0-1-.41-1.53-1.49-1.53m-.73-4a1.47,1.47,0,0,0-1.45,1.1.54.54,0,0,0,.51.53.6.6,0,0,0,.4-.22.81.81,0,0,1,.62-.3c.57,0,1,.52,1.65.52a1.46,1.46,0,0,0,1.45-1.09.57.57,0,0,0-.5-.54.61.61,0,0,0-.41.23.79.79,0,0,1-.62.31c-.57,0-1-.54-1.65-.54m-.75,8.17c0,.57.39,1,1.31,1a2.59,2.59,0,0,0,1.66-.63V70.87c-2,.23-3,.61-3,1.5"/><path class="cls-1" d="M201.57,67A3.77,3.77,0,1,1,198,70.81,3.43,3.43,0,0,1,201.57,67m0,6.41c1.3,0,2.12-1,2.12-2.62s-.84-2.68-2.14-2.68-2.14,1-2.14,2.64.85,2.66,2.16,2.66"/></g></g></g></svg>